<?xml version="1.0" encoding="UTF-8" standalone="no"?>
<!-- Created with Inkscape (http://www.inkscape.org/) -->

<svg
   xmlns:dc="http://purl.org/dc/elements/1.1/"
   xmlns:cc="http://creativecommons.org/ns#"
   xmlns:rdf="http://www.w3.org/1999/02/22-rdf-syntax-ns#"
   xmlns:svg="http://www.w3.org/2000/svg"
   xmlns="http://www.w3.org/2000/svg"
   xmlns:sodipodi="http://sodipodi.sourceforge.net/DTD/sodipodi-0.dtd"
   xmlns:inkscape="http://www.inkscape.org/namespaces/inkscape"
   width="1000"
   height="1000"
   id="svg2"
   version="1.1"
   viewBox="0 0 1000 1000"
   inkscape:version="0.91 r13725"
   sodipodi:docname="CTH-Hibiscus2.svg">
  <title
     id="title3379">CTH Hibiscus2</title>
  <defs
     id="defs4" />
  <sodipodi:namedview
     id="base"
     pagecolor="#ffffff"
     bordercolor="#666666"
     borderopacity="1.0"
     inkscape:pageopacity="0.0"
     inkscape:pageshadow="2"
     inkscape:zoom="0.68614411"
     inkscape:cx="712.84164"
     inkscape:cy="563.20315"
     inkscape:document-units="px"
     inkscape:current-layer="layer1"
     showgrid="false"
     inkscape:window-width="1327"
     inkscape:window-height="953"
     inkscape:window-x="345"
     inkscape:window-y="43"
     inkscape:window-maximized="0" />
  <metadata
     id="metadata7">
    <rdf:RDF>
      <cc:Work
         rdf:about="">
        <dc:format>image/svg+xml</dc:format>
        <dc:type
           rdf:resource="http://purl.org/dc/dcmitype/StillImage" />
        <dc:title>CTH Hibiscus2</dc:title>
        <cc:license
           rdf:resource="http://creativecommons.org/licenses/by/3.0/" />
        <dc:rights>
          <cc:Agent>
            <dc:title>The copyright holder of this file allows anyone to use it for any purpose, provided that the copyright holder is properly attributed. Redistribution, derivative work, commercial use, and all other use is permitted.</dc:title>
          </cc:Agent>
        </dc:rights>
        <dc:creator>
          <cc:Agent>
            <dc:title>Troy Dawson</dc:title>
          </cc:Agent>
        </dc:creator>
        <dc:contributor>
          <cc:Agent>
            <dc:title>Troy Dawson</dc:title>
          </cc:Agent>
        </dc:contributor>
        <dc:date>July 2, 2016</dc:date>
      </cc:Work>
      <cc:License
         rdf:about="http://creativecommons.org/licenses/by/3.0/">
        <cc:permits
           rdf:resource="http://creativecommons.org/ns#Reproduction" />
        <cc:permits
           rdf:resource="http://creativecommons.org/ns#Distribution" />
        <cc:requires
           rdf:resource="http://creativecommons.org/ns#Notice" />
        <cc:requires
           rdf:resource="http://creativecommons.org/ns#Attribution" />
        <cc:permits
           rdf:resource="http://creativecommons.org/ns#DerivativeWorks" />
      </cc:License>
    </rdf:RDF>
  </metadata>
  <g
     inkscape:label="Layer 1"
     inkscape:groupmode="layer"
     id="layer1"
     transform="translate(0,-52.36218)">
    <g
       id="g4690"
       inkscape:export-xdpi="90"
       inkscape:export-ydpi="90"
       transform="matrix(1.3108788,0,0,1.3108788,-20.796031,-107.36593)">
      <path
         sodipodi:nodetypes="ccccccccccc"
         inkscape:connector-curvature="0"
         id="path2985"
         d="m 296.73947,454.33302 c 35.32776,32.58425 69.59271,61.32138 30.26053,57.02916 -51.41449,-17.38304 -154.18893,-72.1597 -183.55055,-98.83047 -12.59544,-25.03562 65.95715,9.36379 38.48261,-29.4284 40.83841,20.09444 33.52775,-38.14773 54.82003,-14.26169 -17.13967,-76.80199 56.22141,-25.45367 45.37656,-87.47897 35.43185,52.05971 42.15465,-23.75457 81.35947,15.04129 -12.08179,-36.67392 18.01601,-38.21461 44.8898,5.44036 1.42744,59.20552 -8.59302,164.62287 -23.37792,175.51788 -71.91607,-69.06849 -49.01896,-60.13964 -25.83039,11.48166 -27.56689,-9.5554 -29.76349,-18.9104 -62.43014,-34.51082 z"
         style="fill:#6ae35e;fill-opacity:1;fill-rule:nonzero;stroke:#008000;stroke-width:6;stroke-linejoin:round;stroke-miterlimit:4;stroke-dasharray:none;stroke-opacity:1" />
      <path
         sodipodi:nodetypes="ccccccccccc"
         inkscape:connector-curvature="0"
         id="path2985-5"
         d="m 323.21315,548.6964 c -51.66589,9.50001 -89.62817,18.13904 -59.25965,18.12232 48.65119,4.02139 28.77533,5.65746 64.03585,22.09067 -44.09616,47.44379 -119.35622,103.39558 -170.84009,124.31864 -38.16991,9.25576 -51.2008,7.47136 -48.77563,-38.76807 -39.119483,27.85227 8.0215,-28.4249 -0.51061,-48.61404 -33.933019,6.03525 -57.895116,-50.70828 -43.412631,-54.44328 67.051661,-11.55063 65.559081,-11.12349 29.572908,-55.71069 49.935183,5.91619 -14.988621,-83.68196 49.615613,-85.24946 25.02101,29.5336 182.81215,88.45878 176.11014,97.14429 -32.84322,10.54794 -89.52851,14.39944 3.4641,21.10962 z"
         style="fill:#6ae35e;fill-opacity:1;fill-rule:nonzero;stroke:#008000;stroke-width:6;stroke-linejoin:round;stroke-miterlimit:4;stroke-dasharray:none;stroke-opacity:1" />
      <path
         sodipodi:nodetypes="ccccccccccc"
         inkscape:connector-curvature="0"
         id="path2985-1"
         d="m 350.0421,673.17212 c 4.46423,-30.37283 3.90491,-12.63864 17.15937,-57.21061 23.42825,73.96021 9.26654,23.74065 28.74895,-3.84763 7.60594,51.28119 68.89513,135.06012 90.06314,178.18951 -25.09813,87.72451 -40.88988,38.66552 -54.2428,52.84384 0.27117,25.76878 -32.58252,-49.1154 -35.65168,7.26607 -52.00594,-46.5393 -80.84573,42.69489 -88.37423,6.03149 -38.67442,33.27303 -63.81336,36.76334 -70.66411,-54.9146 -80.46174,-4.5658 -78.50038,-26.12024 -59.8559,-80.83105 52.57294,-19.36865 113.89543,-80.85453 151.81791,-115.17023 24.9956,11.03191 -8.25543,44.20661 20.99935,67.64321 z"
         style="fill:#6ae35e;fill-opacity:1;fill-rule:nonzero;stroke:#008000;stroke-width:6;stroke-linejoin:round;stroke-miterlimit:4;stroke-dasharray:none;stroke-opacity:1" />
      <path
         sodipodi:nodetypes="ccccccczcsc"
         inkscape:connector-curvature="0"
         id="path2985-2"
         d="m 445.6916,590.90531 c 97.41064,16.32866 0.0306,-6.0327 -0.90833,-43.05824 46.53942,-6.73114 228.08005,22.53848 257.25287,22.05332 75.67522,50.9781 -5.98659,64.56579 3.3715,81.64651 -5.02765,21.4647 -81.62331,14.33535 -48.55382,59.56805 -37.22588,-23.42693 -18.45355,35.42074 -69.6902,9.31763 40.88392,38.53675 10.31031,40.12173 -36.11314,42.64516 19.01875,46.02282 -53.46351,32.3336 -65.45426,2.25216 -11.99075,-30.08145 -78.30854,-133.38012 -72.75123,-150.88471 5.40241,-17.0167 76.05341,-5.61278 96.26261,3.82741 12.65075,5.90946 -71.87162,-25.55873 -63.416,-27.36729 z"
         style="fill:#6ae35e;fill-opacity:1;fill-rule:nonzero;stroke:#008000;stroke-width:6;stroke-linejoin:round;stroke-miterlimit:4;stroke-dasharray:none;stroke-opacity:1" />
      <path
         sodipodi:nodetypes="cccccccccccc"
         inkscape:connector-curvature="0"
         id="path2985-9"
         d="m 487.9141,469.43405 c -32.04074,24.04843 -46.28292,37.89612 -73.79603,17.88855 21.0256,-48.62557 38.35219,-141.39598 31.433,-197.79395 29.61276,-44.23377 24.78557,15.06756 71.54283,-32.58233 -9.40448,46.84351 45.96244,80.05758 46.05933,41.18897 28.85792,-14.99342 21.60207,53.00672 69.83315,40.59173 -17.60972,27.94552 24.20821,5.16828 61.64409,-22.69771 -21.96854,55.67676 20.21865,63.79627 -22.45356,104.39578 28.37375,-2.20948 3.80357,36.87306 46.30183,66.70088 -59.62887,-12.60401 -27.1408,48.96106 -52.84208,60.90524 -28.87927,-1.81268 -181.17781,-19.97807 -213.0726,-16.53574 -23.60027,-16.90451 41.31481,-40.31319 35.35004,-62.06142 z"
         style="fill:#6ae35e;fill-opacity:1;fill-rule:nonzero;stroke:#008000;stroke-width:6;stroke-linejoin:round;stroke-miterlimit:4;stroke-dasharray:none;stroke-opacity:1" />
      <path
         sodipodi:nodetypes="ssccccccccccccccccccccccss"
         inkscape:connector-curvature="0"
         id="path3816-0"
         d="m 369.33456,589.81932 c 10.2521,1.85833 45.5056,-23.58127 50.2978,-39.42542 3.2432,-10.72315 2.9987,-34.14106 -23.9985,-49.48139 56.11111,-103.457 41.6784,-283.73094 15.2595,-311.34372 -0.9527,-2.21598 -3.4872,-4.42943 -4.5739,-7.19339 5.2803,-18.11621 42.05301,-5.20495 31.16281,-28.92773 -10.75931,-14.35819 -19.13711,16.06271 -41.07051,17.80285 -3.4489,-4.55447 -1.7263,-1.54382 -5.9867,-6.00052 1.972,-10.86522 31.3084,-12.19072 24.3199,-27.43127 -15.7013,-10.61102 -16.0865,15.58275 -31.4139,19.47167 -3.1919,-2.96309 -4.0578,-2.96771 -7.5859,-7.08453 2.8869,-8.80818 21.0345,-7.62561 15.9113,-20.6199 -15.4513,-8.13752 -12.0152,8.95707 -22.8569,15.92512 -2.5228,-17.7208 -8.788,-16.58159 -18.1431,-12.69477 -10.6773,5.36004 -7.526,16.70157 6.8387,23.42493 -10.5761,7.81531 -25.3855,-2.39053 -21.7095,16.1216 12.1926,4.72578 17.2724,-8.39032 26.0466,-10.5644 3.2661,1.46949 4.1446,4.93296 7.125,6.8009 -1.6327,12.69297 -31.3879,12.64285 -24.1608,26.15543 12.9806,9.31831 20.4437,-15.62426 31.5293,-19.5917 4.7377,2.38775 1.688,1.58591 6.0889,5.1019 4.6424,17.51203 -41.1789,22.14996 -26.0394,37.98039 24.6256,10.67062 22.9328,-24.73828 35.1281,-27.08783 2.7942,0.52491 4.8488,3.43632 6.9718,5.24662 43.21685,56.7593 22.6878,269.58188 -24.6098,317.90649 -32.2945,32.99575 -40.5716,68.97573 -4.5308,75.50867 z"
         style="fill:#6ae35e;fill-opacity:1;fill-rule:nonzero;stroke:#008000;stroke-width:3.54294014;stroke-linejoin:round;stroke-miterlimit:4;stroke-dasharray:none;stroke-opacity:1" />
    </g>
  </g>
</svg>
