<?xml version="1.0" encoding="UTF-8" standalone="no"?>
<!-- Created with Inkscape (http://www.inkscape.org/) -->

<svg
   xmlns:dc="http://purl.org/dc/elements/1.1/"
   xmlns:cc="http://creativecommons.org/ns#"
   xmlns:rdf="http://www.w3.org/1999/02/22-rdf-syntax-ns#"
   xmlns:svg="http://www.w3.org/2000/svg"
   xmlns="http://www.w3.org/2000/svg"
   xmlns:sodipodi="http://sodipodi.sourceforge.net/DTD/sodipodi-0.dtd"
   xmlns:inkscape="http://www.inkscape.org/namespaces/inkscape"
   width="1000"
   height="1000"
   id="svg2"
   version="1.1"
   viewBox="0 0 1000 1000"
   inkscape:version="0.91 r13725"
   sodipodi:docname="CTH-Hibiscus3.svg">
  <title
     id="title3339">CTH Hibiscus3</title>
  <defs
     id="defs4" />
  <sodipodi:namedview
     id="base"
     pagecolor="#ffffff"
     bordercolor="#666666"
     borderopacity="1.0"
     inkscape:pageopacity="0.0"
     inkscape:pageshadow="2"
     inkscape:zoom="0.66245342"
     inkscape:cx="782.03265"
     inkscape:cy="508.69336"
     inkscape:document-units="px"
     inkscape:current-layer="layer1"
     showgrid="false"
     inkscape:window-width="1308"
     inkscape:window-height="951"
     inkscape:window-x="291"
     inkscape:window-y="27"
     inkscape:window-maximized="0" />
  <metadata
     id="metadata7">
    <rdf:RDF>
      <cc:Work
         rdf:about="">
        <dc:format>image/svg+xml</dc:format>
        <dc:type
           rdf:resource="http://purl.org/dc/dcmitype/StillImage" />
        <dc:title>CTH Hibiscus3</dc:title>
        <cc:license
           rdf:resource="http://creativecommons.org/licenses/by/3.0/" />
        <dc:creator>
          <cc:Agent>
            <dc:title>Troy Dawson</dc:title>
          </cc:Agent>
        </dc:creator>
        <dc:contributor>
          <cc:Agent>
            <dc:title>Troy Dawson</dc:title>
          </cc:Agent>
        </dc:contributor>
        <dc:rights>
          <cc:Agent>
            <dc:title>The copyright holder of this file allows anyone to use it for any purpose, provided that the copyright holder is properly attributed. Redistribution, derivative work, commercial use, and all other use is permitted.</dc:title>
          </cc:Agent>
        </dc:rights>
        <dc:date>July 2, 2016</dc:date>
      </cc:Work>
      <cc:License
         rdf:about="http://creativecommons.org/licenses/by/3.0/">
        <cc:permits
           rdf:resource="http://creativecommons.org/ns#Reproduction" />
        <cc:permits
           rdf:resource="http://creativecommons.org/ns#Distribution" />
        <cc:requires
           rdf:resource="http://creativecommons.org/ns#Notice" />
        <cc:requires
           rdf:resource="http://creativecommons.org/ns#Attribution" />
        <cc:permits
           rdf:resource="http://creativecommons.org/ns#DerivativeWorks" />
      </cc:License>
    </rdf:RDF>
  </metadata>
  <g
     inkscape:label="Layer 1"
     inkscape:groupmode="layer"
     id="layer1"
     transform="translate(0,-52.362183)">
    <g
       id="g5549"
       style="fill:#6ae35e;fill-opacity:1;stroke:#008000;stroke-width:6;stroke-miterlimit:4;stroke-dasharray:none;stroke-opacity:1"
       inkscape:export-xdpi="90"
       inkscape:export-ydpi="90"
       transform="matrix(1.4944456,0,0,1.4944456,-90.895352,-274.16477)">
      <path
         sodipodi:nodetypes="ccccccccccccc"
         inkscape:connector-curvature="0"
         id="path2985"
         d="m 312.29002,430.30035 c -77.76715,-45.1685 93.62538,74.04456 62.77532,96.61238 -54.24187,-13.14198 -192.35847,-70.74601 -231.61589,-103.07153 -12.59544,-25.03562 57.36343,2.965 29.88889,-35.82719 40.83841,20.09444 34.75542,-19.73261 56.0477,4.15343 -4.87328,-21.8369 40.26455,1.75909 19.36627,-37.9886 38.39023,30.32862 -10.86635,-70.78591 34.38352,-42.21713 -27.2362,-49.52679 43.4153,34.7276 26.00167,-24.46069 35.43185,52.05971 15.1458,-29.89294 54.35062,8.90292 -12.08179,-36.67392 33.56656,-35.38724 60.44035,8.26773 4.82897,76.21319 -5.65847,142.56873 -30.44635,215.1011 -6.94103,-29.64525 -51.04423,-166.60161 -33.27488,-74.34383 -11.87511,35.48172 -84.35257,-80.36274 -47.91722,-15.12859 z"
         style="fill:#6ae35e;fill-opacity:1;fill-rule:nonzero;stroke:#008000;stroke-width:6;stroke-linejoin:round;stroke-miterlimit:4;stroke-dasharray:none;stroke-opacity:1" />
      <path
         sodipodi:nodetypes="cccccccccccc"
         inkscape:connector-curvature="0"
         id="path2985-5"
         d="m 286.4573,560.00589 c 32.95262,32.86851 60.84276,-21.43803 95.25213,-5.02497 -44.09616,47.44379 -173.0763,137.32405 -224.56017,158.24711 -26.38027,-8.4287 18.33286,-48.9498 -37.72656,-37.5404 48.04545,-28.62077 -42.31317,-12.46512 -0.51061,-33.88194 -33.415689,2.23127 15.19301,-34.15791 -51.745575,-26.21274 38.540505,-19.55974 -3.696598,-43.21984 39.024825,-45.41798 -45.894439,-28.73808 37.32255,-17.26187 -12.168043,-54.48302 26.631853,3.15527 -13.200811,-50.33671 30.006823,-35.60084 -35.806032,-29.01408 -10.54017,-48.91711 19.60879,-49.64862 39.15787,42.25678 236.53223,96.9409 229.83022,105.62641 -32.84322,10.54794 -155.97177,8.74469 -87.01183,23.93699 z"
         style="fill:#6ae35e;fill-opacity:1;fill-rule:nonzero;stroke:#008000;stroke-width:6;stroke-linejoin:round;stroke-miterlimit:4;stroke-dasharray:none;stroke-opacity:1" />
      <path
         sodipodi:nodetypes="ccccccccccccc"
         inkscape:connector-curvature="0"
         id="path2985-1"
         d="m 358.71935,651.30367 c 22.01457,-27.82521 21.98972,-68.14896 41.47213,-95.73724 17.50174,51.28119 67.85347,132.45596 85.82208,234.73696 -20.18743,84.04149 -40.88988,9.20132 -50.55977,47.93314 -10.89844,-39.7025 -55.06326,18.41553 -56.13335,-13.9664 -12.95958,37.69673 -41.99326,-0.14468 -43.35743,24.9155 -32.36315,-55.13302 -51.38153,10.77534 -58.91003,-25.88806 -13.66129,19.48973 -15.00151,-63.4229 -59.26934,5.10132 9.60192,-55.63419 -19.74087,-34.62239 0.88198,-67.38197 -22.30232,7.9769 -14.97126,-18.79812 -49.92187,3.78922 18.83509,-36.00605 -32.5346,-16.36972 -9.89683,-46.93437 52.57294,-19.36865 193.06186,-127.50618 230.98434,-161.82188 -39.53258,77.44802 -65.84536,101.94178 -31.11191,95.25378 z"
         style="fill:#6ae35e;fill-opacity:1;fill-rule:nonzero;stroke:#008000;stroke-width:6;stroke-linejoin:round;stroke-miterlimit:4;stroke-dasharray:none;stroke-opacity:1" />
      <path
         sodipodi:nodetypes="cccccccccccccc"
         inkscape:connector-curvature="0"
         id="path2985-2"
         d="m 505.06643,616.35166 c 68.16719,54.05794 135.02978,22.27933 42.28711,5.93003 84.0825,1.06333 -130.41224,-63.06328 -130.844,-80.08937 46.53942,-6.73114 197.27657,-12.84087 277.04448,6.50278 75.67522,50.9781 -19.60262,50.16851 15.53664,64.79388 -39.17765,-2.25493 -17.02378,55.71113 -45.09994,30.29946 18.10866,45.4906 -24.40794,15.49794 1.45682,57.50511 -27.31255,-19.14615 -15.10268,24.71075 -61.81669,2.87026 37.53484,33.17601 -9.85948,22.04765 10.54162,66.60344 -41.3703,-31.44072 -30.20297,0.83613 -56.98362,-19.96626 8.75315,21.18144 -25.10593,2.28085 -21.65489,53.06854 -19.45808,-60.58878 -25.42419,9.98486 -43.42735,-11.75399 -9.20058,-68.5114 -76.33681,-208.23109 -87.74374,-242.69992 13.42523,1.10028 144.05726,121.53418 100.70356,66.93604 z"
         style="fill:#6ae35e;fill-opacity:1;fill-rule:nonzero;stroke:#008000;stroke-width:6;stroke-linejoin:round;stroke-miterlimit:4;stroke-dasharray:none;stroke-opacity:1" />
      <path
         sodipodi:nodetypes="ccccccccccccc"
         inkscape:connector-curvature="0"
         id="path2985-9"
         d="m 468.12249,499.12146 c 76.81311,-50.87695 -44.86923,2.55396 -70.96866,24.95699 21.0256,-48.62557 51.07537,-166.84234 31.433,-220.41294 29.61276,-44.23377 41.74981,0.9307 88.50707,-46.71919 -3.87418,19.29719 13.52636,41.4452 -7.70052,71.17521 36.77443,-24.61424 54.93055,30.92836 66.0366,3.16098 -11.65535,47.61801 21.60207,27.22555 12.13243,67.60058 36.40797,-46.94265 25.43588,16.21736 62.87176,-11.64863 -21.96854,55.67676 23.90168,44.15347 -18.77053,84.75298 60.2933,-21.85228 7.4866,24.5963 85.58743,29.87063 -62.08422,8.26646 6.60166,31.40159 -19.09962,43.34577 -48.03844,-23.98523 -244.7937,-10.08227 -276.68849,-6.63994 -23.60027,-16.90451 96.44858,-37.48582 46.65953,-39.44244 z"
         style="fill:#6ae35e;fill-opacity:1;fill-rule:nonzero;stroke:#008000;stroke-width:6;stroke-linejoin:round;stroke-miterlimit:4;stroke-dasharray:none;stroke-opacity:1" />
    </g>
  </g>
</svg>
