<?xml version="1.0" encoding="UTF-8" standalone="no"?>
<!-- Created with Inkscape (http://www.inkscape.org/) -->

<svg
   xmlns:dc="http://purl.org/dc/elements/1.1/"
   xmlns:cc="http://creativecommons.org/ns#"
   xmlns:rdf="http://www.w3.org/1999/02/22-rdf-syntax-ns#"
   xmlns:svg="http://www.w3.org/2000/svg"
   xmlns="http://www.w3.org/2000/svg"
   xmlns:sodipodi="http://sodipodi.sourceforge.net/DTD/sodipodi-0.dtd"
   xmlns:inkscape="http://www.inkscape.org/namespaces/inkscape"
   width="1000"
   height="1000"
   id="svg2"
   version="1.1"
   viewBox="0 0 1000 1000"
   inkscape:version="0.91 r13725"
   sodipodi:docname="CTH-Hibiscus1.svg">
  <title
     id="title3341">CTH Hibiscus1</title>
  <defs
     id="defs4" />
  <sodipodi:namedview
     id="base"
     pagecolor="#ffffff"
     bordercolor="#666666"
     borderopacity="1.0"
     inkscape:pageopacity="0.0"
     inkscape:pageshadow="2"
     inkscape:zoom="0.63"
     inkscape:cx="723.81422"
     inkscape:cy="538.89852"
     inkscape:document-units="px"
     inkscape:current-layer="layer1"
     showgrid="false"
     inkscape:window-width="1327"
     inkscape:window-height="953"
     inkscape:window-x="255"
     inkscape:window-y="51"
     inkscape:window-maximized="0" />
  <metadata
     id="metadata7">
    <rdf:RDF>
      <cc:Work
         rdf:about="">
        <dc:format>image/svg+xml</dc:format>
        <dc:type
           rdf:resource="http://purl.org/dc/dcmitype/StillImage" />
        <dc:title>CTH Hibiscus1</dc:title>
        <cc:license
           rdf:resource="http://creativecommons.org/licenses/by/3.0/" />
        <dc:creator>
          <cc:Agent>
            <dc:title>Troy Dawson</dc:title>
          </cc:Agent>
        </dc:creator>
        <dc:contributor>
          <cc:Agent>
            <dc:title>Troy Dawson</dc:title>
          </cc:Agent>
        </dc:contributor>
        <dc:date>July 2, 2016</dc:date>
        <dc:rights>
          <cc:Agent>
            <dc:title>The copyright holder of this file allows anyone to use it for any purpose, provided that the copyright holder is properly attributed. Redistribution, derivative work, commercial use, and all other use is permitted.</dc:title>
          </cc:Agent>
        </dc:rights>
      </cc:Work>
      <cc:License
         rdf:about="http://creativecommons.org/licenses/by/3.0/">
        <cc:permits
           rdf:resource="http://creativecommons.org/ns#Reproduction" />
        <cc:permits
           rdf:resource="http://creativecommons.org/ns#Distribution" />
        <cc:requires
           rdf:resource="http://creativecommons.org/ns#Notice" />
        <cc:requires
           rdf:resource="http://creativecommons.org/ns#Attribution" />
        <cc:permits
           rdf:resource="http://creativecommons.org/ns#DerivativeWorks" />
      </cc:License>
    </rdf:RDF>
  </metadata>
  <g
     inkscape:label="Layer 1"
     inkscape:groupmode="layer"
     id="layer1"
     transform="translate(0,-52.362183)">
    <g
       id="g4710"
       inkscape:export-xdpi="90"
       inkscape:export-ydpi="90"
       transform="matrix(1.278296,0,0,1.278296,-2.1992607,-101.03604)">
      <path
         sodipodi:nodetypes="csccczccc"
         inkscape:connector-curvature="0"
         id="path2985"
         d="m 296.73947,454.33302 c 35.32776,32.58425 69.46028,62.39788 30.26053,57.02916 -44.34606,-6.07355 -132.98363,-113.1566 -168,-137 -40.16932,-56.01993 -26.74612,-74.16602 90.61386,-73.20792 -26.96793,-21.45368 36.61665,-31.18256 89.84159,-3.33663 17.60562,-39.50129 27.91182,-28.31881 50.54455,-4.45545 22.63273,23.86336 9.7849,173.10499 -5,184 -71.91607,-69.06849 -49.01896,-60.13964 -25.83039,11.48166 -27.56689,-9.5554 -29.76349,-18.9104 -62.43014,-34.51082 z"
         style="fill:#6ae35e;fill-opacity:1;fill-rule:nonzero;stroke:#008000;stroke-width:6;stroke-linejoin:round;stroke-miterlimit:4;stroke-dasharray:none;stroke-opacity:1" />
      <path
         sodipodi:nodetypes="cccccczcc"
         inkscape:connector-curvature="0"
         id="path2985-5"
         d="m 323.21315,548.6964 c -51.66589,9.50001 -89.62817,18.13904 -59.25965,18.12232 48.65119,4.02139 63.72394,-0.60899 61.20848,16.43592 -18.89487,48.32474 -158.48409,95.69289 -196.28645,96.04492 -91.18672,3.23862 -7.64291,-91.78726 -25.25357,-100.10529 -58.47506,-24.98823 -70.99721,-47.15601 -22.32184,-74.81181 -42.43802,-26.05429 -9.333876,-38.444 53.85667,-44.25256 63.19055,-5.80856 191.29427,58.77137 184.59226,67.45688 -32.84322,10.54794 -89.52851,14.39944 3.4641,21.10962 z"
         style="fill:#6ae35e;fill-opacity:1;fill-rule:nonzero;stroke:#008000;stroke-width:6;stroke-linejoin:round;stroke-miterlimit:4;stroke-dasharray:none;stroke-opacity:1" />
      <path
         sodipodi:nodetypes="cccccczcc"
         inkscape:connector-curvature="0"
         id="path2985-1"
         d="m 350.0421,673.17212 c 4.46423,-30.37283 3.90491,-12.63864 17.15937,-57.21061 23.42825,73.96021 9.26654,23.74065 28.74895,-3.84763 40.12073,32.90327 42.03509,180.29808 30.68831,216.35904 -25.09813,87.72451 -59.2678,24.52866 -72.62072,38.70698 -41.83501,47.8913 -70.35459,41.27667 -81.61532,-13.56248 -37.89317,32.30974 -191.694911,-8.9977 -81.04099,-113.12667 110.65392,-104.12897 119.31588,-134.83793 137.68105,-134.96184 29.02923,-0.19583 -8.25543,44.20661 20.99935,67.64321 z"
         style="fill:#6ae35e;fill-opacity:1;fill-rule:nonzero;stroke:#008000;stroke-width:6;stroke-linejoin:round;stroke-miterlimit:4;stroke-dasharray:none;stroke-opacity:1" />
      <path
         sodipodi:nodetypes="ccccczcsc"
         inkscape:connector-curvature="0"
         id="path2985-2"
         d="m 445.6916,590.90531 c 97.41064,16.32866 0.0306,-6.0327 -0.90833,-43.05824 43.69086,-27.98941 226.46321,22.73742 257.25287,44.6723 75.67522,50.9781 -5.98659,41.94681 3.3715,59.02753 -11.38039,48.58668 -53.48432,86.66639 -109.1192,80.42974 19.01875,46.02282 -70.42774,39.40203 -93.72798,12.14796 -23.30024,-27.25407 -95.27278,-112.17482 -89.71547,-129.67941 5.40241,-17.0167 76.05341,-5.61278 96.26261,3.82741 12.65075,5.90946 -71.87162,-25.55873 -63.416,-27.36729 z"
         style="fill:#6ae35e;fill-opacity:1;fill-rule:nonzero;stroke:#008000;stroke-width:6;stroke-linejoin:round;stroke-miterlimit:4;stroke-dasharray:none;stroke-opacity:1" />
      <path
         sodipodi:nodetypes="ccccczcc"
         inkscape:connector-curvature="0"
         id="path2985-9"
         d="m 487.9141,469.43405 c -32.04074,24.04843 -46.28292,37.89612 -73.79603,17.88855 6.88874,-29.83141 52.23572,-156.20214 76.67097,-183.65709 76.81848,-97.80248 53.22765,-1.90838 72.36419,-5.53022 61.99503,-14.15488 215.79941,2.43545 133.05635,127.94455 49.64742,-3.86607 -29.96738,54.49341 -63.08771,68.23129 C 600.00154,508.049 467.49461,542.19 452.56406,531.49547 428.96379,514.59096 493.87887,491.18228 487.9141,469.43405 Z"
         style="fill:#6ae35e;fill-opacity:1;fill-rule:nonzero;stroke:#008000;stroke-width:6;stroke-linejoin:round;stroke-miterlimit:4;stroke-dasharray:none;stroke-opacity:1" />
      <path
         sodipodi:nodetypes="cscccccccccccccccccccccccc"
         inkscape:connector-curvature="0"
         id="path3816-0-3"
         d="m 348.14989,553.14653 c -2.34678,28.00494 39.28904,41.57462 65.38824,19.97027 23.14872,-19.16198 -15.32735,-40.19691 -12.44286,-56.24168 17.38922,-84.55495 64.4395,-271.74102 79.99779,-312.31035 1.44274,-1.93304 2.09246,-5.23469 3.94279,-7.55776 18.32914,-4.48529 25.53416,33.81653 40.63348,12.52385 7.05494,-16.49689 -23.4793,-8.54151 -35.95299,-26.66664 2.21989,-5.26407 0.47394,-2.2669 2.20327,-8.18491 10.39559,-3.72481 26.2117,21.01855 35.91613,7.34603 1.33881,-18.90321 -21.53834,-6.13996 -32.56992,-17.46942 0.97015,-4.24581 0.54116,-4.99803 2.34242,-10.11185 9.07158,-1.90396 17.12121,14.4036 25.81311,3.4697 -0.67845,-17.45003 -13.76467,-5.92695 -25.22012,-11.83216 14.08523,-11.04521 9.96613,-15.9014 1.92252,-22.05974 -9.98063,-6.56681 -18.22698,1.83309 -16.86724,17.63497 -12.05635,-5.25155 -10.62256,-23.17979 -24.81649,-10.74019 2.00364,12.92197 15.90245,10.76317 22.17236,17.27482 0.36043,3.56326 -2.20363,6.0544 -2.32728,9.57087 -11.80878,4.93251 -26.64297,-20.8613 -34.73167,-7.84616 -1.57959,15.90067 23.75283,9.89262 32.73155,17.50932 0.30103,5.29684 -0.52942,2.25481 -1.37352,7.82417 -12.84463,12.77645 -39.77182,-24.58697 -45.91162,-3.56059 3.07177,26.66172 32.89037,7.49126 41.0228,16.87793 0.94253,2.68231 -0.55152,5.91734 -1.05785,8.66104 -28.5174,66.77743 -71.85895,283.07531 -83.14727,312.48554 -25.97611,22.50576 -38.92334,20.53426 -37.66763,43.43294 z"
         style="fill:#6ae35e;fill-opacity:1;fill-rule:nonzero;stroke:#008000;stroke-width:3.54294014;stroke-linejoin:round;stroke-miterlimit:4;stroke-dasharray:none;stroke-opacity:1" />
    </g>
  </g>
</svg>
