<?xml version="1.0" encoding="UTF-8" standalone="no"?>
<svg
   xmlns:dc="http://purl.org/dc/elements/1.1/"
   xmlns:cc="http://creativecommons.org/ns#"
   xmlns:rdf="http://www.w3.org/1999/02/22-rdf-syntax-ns#"
   xmlns:svg="http://www.w3.org/2000/svg"
   xmlns="http://www.w3.org/2000/svg"
   xmlns:sodipodi="http://sodipodi.sourceforge.net/DTD/sodipodi-0.dtd"
   xmlns:inkscape="http://www.inkscape.org/namespaces/inkscape"
   height="1000"
   width="1000"
   version="1.1"
   viewBox="0 0 1000 1000"
   id="svg4655"
   inkscape:version="0.91 r13725"
   sodipodi:docname="YorSplat.svg"
   inkscape:export-xdpi="90"
   inkscape:export-ydpi="90">
  <metadata
     id="metadata6323">
    <rdf:RDF>
      <cc:Work
         rdf:about="">
        <dc:format>image/svg+xml</dc:format>
        <dc:type
           rdf:resource="http://purl.org/dc/dcmitype/StillImage" />
        <dc:title>Yor Splat</dc:title>
        <dc:date>September 20, 2014</dc:date>
        <dc:creator>
          <cc:Agent>
            <dc:title>Troy Dawson</dc:title>
          </cc:Agent>
        </dc:creator>
        <cc:license
           rdf:resource="http://creativecommons.org/licenses/by/3.0/" />
        <dc:subject>
          <rdf:Bag>
            <rdf:li>Yor Splat</rdf:li>
          </rdf:Bag>
        </dc:subject>
        <dc:rights>
          <cc:Agent>
            <dc:title>The copyright holder of this file allows anyone to use it for any purpose, provided that the copyright holder is properly attributed. Redistribution, derivative work, commercial use, and all other use is permitted.</dc:title>
          </cc:Agent>
        </dc:rights>
        <dc:contributor>
          <cc:Agent>
            <dc:title>Troy Dawson</dc:title>
          </cc:Agent>
        </dc:contributor>
        <dc:description>Original Tux svg came from here.
https://commons.wikimedia.org/wiki/File:Tux.svg

All other work done by Troy Dawson.
Yor Tux is released under the same license as the original Tux.
&quot;The copyright holder of this file allows anyone to use it for any purpose, provided that the copyright holder is properly attributed. Redistribution, derivative work, commercial use, and all other use is permitted.&quot;</dc:description>
      </cc:Work>
      <cc:License
         rdf:about="http://creativecommons.org/licenses/by/3.0/">
        <cc:permits
           rdf:resource="http://creativecommons.org/ns#Reproduction" />
        <cc:permits
           rdf:resource="http://creativecommons.org/ns#Distribution" />
        <cc:requires
           rdf:resource="http://creativecommons.org/ns#Notice" />
        <cc:requires
           rdf:resource="http://creativecommons.org/ns#Attribution" />
        <cc:permits
           rdf:resource="http://creativecommons.org/ns#DerivativeWorks" />
      </cc:License>
    </rdf:RDF>
  </metadata>
  <defs
     id="defs6321" />
  <sodipodi:namedview
     pagecolor="#ffffff"
     bordercolor="#666666"
     borderopacity="1"
     objecttolerance="10"
     gridtolerance="10"
     guidetolerance="10"
     inkscape:pageopacity="0"
     inkscape:pageshadow="2"
     inkscape:window-width="1339"
     inkscape:window-height="1003"
     id="namedview6319"
     showgrid="false"
     inkscape:zoom="0.8"
     inkscape:cx="653.07029"
     inkscape:cy="526.26568"
     inkscape:window-x="353"
     inkscape:window-y="299"
     inkscape:window-maximized="0"
     inkscape:current-layer="svg4655"
     inkscape:object-paths="false"
     inkscape:snap-intersection-paths="false" />
  <title
     id="title4657">Yor Splat</title>
  <desc
     id="desc4659">For more information see: http://commons.wikimedia.org/wiki/Image:Tux.svg</desc>
  <radialGradient
     id="ag"
     gradientUnits="userSpaceOnUse"
     cy="-551.03998"
     cx="274.82199"
     gradientTransform="matrix(0.5671,0,0,-0.2835,81.263,201.645)"
     r="165.384">
    <stop
       stop-opacity=".502"
       offset="0"
       id="stop4662" />
    <stop
       stop-opacity="0"
       offset="1"
       id="stop4664" />
  </radialGradient>
  <radialGradient
     id="ak"
     gradientUnits="userSpaceOnUse"
     cy="-551.04199"
     cx="268.79401"
     gradientTransform="matrix(0.5823,0,0,-0.2835,-61.6052,201.14)"
     r="165.383">
    <stop
       stop-opacity=".502"
       offset="0"
       id="stop4669" />
    <stop
       stop-opacity="0"
       offset="1"
       id="stop4671" />
  </radialGradient>
  <g
     id="g4984"
     transform="matrix(10.006348,0,0,10.006348,970.70348,4158.2586)">
    <g
       transform="translate(35.202493,-17.445483)"
       id="g4977">
      <path
         sodipodi:type="star"
         style="fill:#ffe700;fill-opacity:1;stroke:#ffffc8;stroke-width:1;stroke-miterlimit:4;stroke-dasharray:none;stroke-opacity:1"
         id="path4936-5"
         sodipodi:sides="8"
         sodipodi:cx="-273.20871"
         sodipodi:cy="-334.12961"
         sodipodi:r1="15.696135"
         sodipodi:r2="48.745762"
         sodipodi:arg1="0.50160402"
         sodipodi:arg2="0.8943031"
         inkscape:flatsided="false"
         inkscape:rounded="0.2"
         inkscape:randomized="0"
         d="m -259.44614,-326.5824 c -3.34345,6.09687 22.17743,26.11013 16.75532,30.46342 -5.42211,4.35329 -19.44766,-24.8893 -26.12297,-22.94234 -6.67531,1.94697 -2.78083,34.14446 -9.69309,33.38869 -6.91225,-0.75577 3.84783,-31.35097 -2.24904,-34.69441 -6.09687,-3.34345 -26.11013,22.17743 -30.46342,16.75532 -4.35329,-5.42211 24.88931,-19.44766 22.94234,-26.12297 -1.94696,-6.67531 -34.14446,-2.78083 -33.38869,-9.69308 0.75577,-6.91226 31.35097,3.84782 34.69441,-2.24905 3.34345,-6.09687 -22.17743,-26.11012 -16.75532,-30.46342 5.42211,-4.35329 19.44766,24.88931 26.12297,22.94234 6.67531,-1.94696 2.78083,-34.14445 9.69309,-33.38869 6.91225,0.75577 -3.84783,31.35097 2.24904,34.69442 6.09687,3.34344 26.11013,-22.17744 30.46342,-16.75533 4.35329,5.42211 -24.88931,19.44767 -22.94234,26.12297 1.94696,6.67531 34.14446,2.78084 33.38869,9.69309 -0.75577,6.91225 -31.35097,-3.84782 -34.69441,2.24904 z"
         transform="matrix(0.93969262,-0.34202015,0.34202015,0.93969262,288.76829,-127.61206)"
         inkscape:transform-center-x="0.59047885"
         inkscape:transform-center-y="-0.069157745" />
      <path
         sodipodi:type="star"
         style="fill:#ffe700;fill-opacity:1;stroke:#ffffc8;stroke-width:1;stroke-miterlimit:4;stroke-dasharray:none;stroke-opacity:1"
         id="path4936"
         sodipodi:sides="8"
         sodipodi:cx="-273.20871"
         sodipodi:cy="-334.12961"
         sodipodi:r1="15.696135"
         sodipodi:r2="48.745762"
         sodipodi:arg1="0.50160402"
         sodipodi:arg2="0.8943031"
         inkscape:flatsided="false"
         inkscape:rounded="0.2"
         inkscape:randomized="0"
         d="m -259.44614,-326.5824 c -3.34345,6.09687 22.17743,26.11013 16.75532,30.46342 -5.42211,4.35329 -19.44766,-24.8893 -26.12297,-22.94234 -6.67531,1.94697 -2.78083,34.14446 -9.69309,33.38869 -6.91225,-0.75577 3.84783,-31.35097 -2.24904,-34.69441 -6.09687,-3.34345 -26.11013,22.17743 -30.46342,16.75532 -4.35329,-5.42211 24.88931,-19.44766 22.94234,-26.12297 -1.94696,-6.67531 -34.14446,-2.78083 -33.38869,-9.69308 0.75577,-6.91226 31.35097,3.84782 34.69441,-2.24905 3.34345,-6.09687 -22.17743,-26.11012 -16.75532,-30.46342 5.42211,-4.35329 19.44766,24.88931 26.12297,22.94234 6.67531,-1.94696 2.78083,-34.14445 9.69309,-33.38869 6.91225,0.75577 -3.84783,31.35097 2.24904,34.69442 6.09687,3.34344 26.11013,-22.17744 30.46342,-16.75533 4.35329,5.42211 -24.88931,19.44767 -22.94234,26.12297 1.94696,6.67531 34.14446,2.78084 33.38869,9.69309 -0.75577,6.91225 -31.35097,-3.84782 -34.69441,2.24904 z"
         transform="translate(190.96573,-14.018692)"
         inkscape:transform-center-x="0.53122163"
         inkscape:transform-center-y="-0.26694487" />
      <circle
         style="fill:#ffc200;fill-opacity:1;stroke:#ffffc8;stroke-width:10;stroke-miterlimit:4;stroke-dasharray:none;stroke-opacity:1"
         id="path4972-4-6"
         transform="matrix(0.44022458,0,0,0.44522337,84.171584,-178.45541)"
         cx="-378.02197"
         cy="-381.14102"
         r="26.373627" />
    </g>
  </g>
</svg>
